<svg width="17" height="15" viewBox="0 0 17 15" fill="none" xmlns="http://www.w3.org/2000/svg">
<path d="M1.05171 11.9383C0.942846 12.0576 0.871004 12.206 0.844922 12.3654C0.81884 12.5247 0.839642 12.6883 0.904798 12.8361C0.969953 12.9839 1.07665 13.1095 1.21192 13.1978C1.34719 13.2861 1.50519 13.3331 1.66671 13.3333H15C15.1615 13.3333 15.3196 13.2864 15.4549 13.1983C15.5903 13.1102 15.6971 12.9847 15.7624 12.837C15.8278 12.6893 15.8488 12.5258 15.8229 12.3664C15.797 12.207 15.7254 12.0585 15.6167 11.9391C14.5084 10.7966 13.3334 9.58242 13.3334 5.83325C13.3334 4.50717 12.8066 3.2354 11.8689 2.29772C10.9312 1.36004 9.65946 0.833252 8.33338 0.833252C7.00729 0.833252 5.73552 1.36004 4.79784 2.29772C3.86016 3.2354 3.33338 4.50717 3.33338 5.83325C3.33338 9.58242 2.15754 10.7966 1.05171 11.9383Z" stroke="#1B1414" stroke-width="1.66667" stroke-linecap="round" stroke-linejoin="round"/>
</svg>
